<mxfile host="65bd71144e">
    <diagram id="wDCaY0y3j6IMbIGrYkaH" name="Page-1">
        <mxGraphModel dx="920" dy="797" grid="1" gridSize="10" guides="1" tooltips="1" connect="1" arrows="1" fold="1" page="1" pageScale="1" pageWidth="850" pageHeight="1100" math="0" shadow="0">
            <root>
                <mxCell id="0"/>
                <mxCell id="1" parent="0"/>
                <mxCell id="2" value="Memory Game Application" style="ellipse;whiteSpace=wrap;html=1;" vertex="1" parent="1">
                    <mxGeometry x="380" y="365" width="140" height="70" as="geometry"/>
                </mxCell>
                <mxCell id="3" value="Player" style="shape=umlActor;verticalLabelPosition=bottom;verticalAlign=top;html=1;" vertex="1" parent="1">
                    <mxGeometry x="140" y="360" width="30" height="60" as="geometry"/>
                </mxCell>
                <mxCell id="5" value="Web Application&lt;div&gt;use only the followings without db&lt;/div&gt;&lt;div style=&quot;scrollbar-color: light-dark(#e2e2e2, #4b4b4b)&lt;br/&gt;&#x9;&#x9;&#x9;&#x9;&#x9;light-dark(#fbfbfb, var(--dark-panel-color));&quot;&gt;- HTML&lt;/div&gt;&lt;div&gt;&lt;span style=&quot;background-color: transparent;&quot;&gt;- CSS&lt;/span&gt;&amp;nbsp; &lt;br&gt;- JavaScript&lt;/div&gt;" style="shape=note;whiteSpace=wrap;html=1;backgroundOutline=1;darkOpacity=0.05;fillColor=#fff2cc;strokeColor=#d6b656;align=left;" vertex="1" parent="1">
                    <mxGeometry x="550" y="210" width="210" height="100" as="geometry"/>
                </mxCell>
                <mxCell id="6" value="" style="endArrow=none;dashed=1;html=1;dashPattern=1 3;strokeWidth=2;entryX=0.427;entryY=0.98;entryDx=0;entryDy=0;entryPerimeter=0;exitX=0.614;exitY=0.043;exitDx=0;exitDy=0;exitPerimeter=0;" edge="1" parent="1" source="2" target="5">
                    <mxGeometry width="50" height="50" relative="1" as="geometry">
                        <mxPoint x="400" y="430" as="sourcePoint"/>
                        <mxPoint x="450" y="380" as="targetPoint"/>
                    </mxGeometry>
                </mxCell>
                <mxCell id="7" value="" style="endArrow=none;html=1;exitX=0.667;exitY=0.667;exitDx=0;exitDy=0;exitPerimeter=0;entryX=0;entryY=0.5;entryDx=0;entryDy=0;" edge="1" parent="1" source="3" target="2">
                    <mxGeometry width="50" height="50" relative="1" as="geometry">
                        <mxPoint x="400" y="430" as="sourcePoint"/>
                        <mxPoint x="450" y="380" as="targetPoint"/>
                    </mxGeometry>
                </mxCell>
                <mxCell id="8" value="Play one by one, only one player" style="shape=note;whiteSpace=wrap;html=1;backgroundOutline=1;darkOpacity=0.05;fillColor=#fff2cc;strokeColor=#d6b656;align=left;" vertex="1" parent="1">
                    <mxGeometry x="190" y="210" width="110" height="100" as="geometry"/>
                </mxCell>
                <mxCell id="9" value="" style="endArrow=none;dashed=1;html=1;dashPattern=1 3;strokeWidth=2;entryX=0.5;entryY=1;entryDx=0;entryDy=0;entryPerimeter=0;exitX=0.5;exitY=0;exitDx=0;exitDy=0;exitPerimeter=0;" edge="1" parent="1" source="3" target="8">
                    <mxGeometry width="50" height="50" relative="1" as="geometry">
                        <mxPoint x="400" y="430" as="sourcePoint"/>
                        <mxPoint x="450" y="380" as="targetPoint"/>
                    </mxGeometry>
                </mxCell>
            </root>
        </mxGraphModel>
    </diagram>
</mxfile>